<svg width="20" height="20" viewBox="0 0 20 20" fill="none" xmlns="http://www.w3.org/2000/svg">
<path d="M3.1814 2.06895L3.05444 2.19592V2.66644V3.13695H2.58392H2.1134L1.98643 3.26392C1.8744 3.37595 1.85947 3.41329 1.85947 3.58507C1.85947 3.75684 1.8744 3.79419 1.98643 3.90622L2.1134 4.03318H2.58392H3.05444V4.5037V4.97422L3.1814 5.10118C3.29343 5.21321 3.33077 5.22815 3.50255 5.22815C3.67433 5.22815 3.71167 5.21321 3.8237 5.10118L3.95066 4.97422V4.5037V4.03318H4.42118H4.8917L5.01866 3.90622C5.13069 3.79419 5.14563 3.75684 5.14563 3.58507C5.14563 3.41329 5.13069 3.37595 5.01866 3.26392L4.8917 3.13695H4.42118H3.95066V2.66644V2.19592L3.8237 2.06895C3.71167 1.95692 3.67433 1.94199 3.50255 1.94199C3.33077 1.94199 3.29343 1.95692 3.1814 2.06895Z" fill="white"/>
<path d="M13.7233 2.27811C13.3461 2.34159 13.2042 2.44988 12.2706 3.38719L11.3819 4.27595L13.193 6.08707L15.0041 7.89819L15.8966 7.00197C16.9609 5.9265 17.002 5.86675 17.002 5.30287C17.002 4.72406 16.9721 4.68298 15.8331 3.53656C15.3066 3.00256 14.8137 2.53204 14.7427 2.48723C14.4552 2.30051 14.0631 2.22209 13.7233 2.27811Z" fill="white"/>
<path d="M7.3638 3.26396L7.23684 3.39092V3.86144V4.33196H6.76632H6.2958L6.16884 4.45893C6.05681 4.57096 6.04187 4.6083 6.04187 4.78007C6.04187 4.95185 6.05681 4.98919 6.16884 5.10122L6.2958 5.22819H6.76632H7.23684V5.69871V6.16923L7.3638 6.29619C7.47583 6.40822 7.51318 6.42316 7.68495 6.42316C7.85673 6.42316 7.89407 6.40822 8.0061 6.29619L8.13307 6.16923V5.69871V5.22819H8.60358H9.0741L9.20107 5.10122C9.3131 4.98919 9.32803 4.95185 9.32803 4.78007C9.32803 4.6083 9.3131 4.57096 9.20107 4.45893L9.0741 4.33196H8.60358H8.13307V3.86144V3.39092L8.0061 3.26396C7.89407 3.15193 7.85673 3.13699 7.68495 3.13699C7.51318 3.13699 7.47583 3.15193 7.3638 3.26396Z" fill="white"/>
<path d="M7.02772 8.63397C4.97013 10.6953 3.2673 12.4168 3.2449 12.4653C3.17768 12.5923 2.64368 15.6693 2.64368 15.9121C2.64368 16.3266 2.96109 16.6328 3.39053 16.6291C3.58098 16.6253 6.38916 16.1436 6.73271 16.054C6.86341 16.0204 7.3638 15.5312 10.635 12.2637L14.388 8.51447L12.5769 6.70335L10.7657 4.89222L7.02772 8.63397Z" fill="white"/>
<path d="M16.3261 9.83629L16.1991 9.96325V10.4338V10.9043H15.7286H15.2581L15.1311 11.0313C15.0191 11.1433 15.0041 11.1806 15.0041 11.3524C15.0041 11.5242 15.0191 11.5615 15.1311 11.6735L15.2581 11.8005H15.7286H16.1991V12.271V12.7416L16.3261 12.8685C16.4381 12.9805 16.4754 12.9955 16.6472 12.9955C16.819 12.9955 16.8563 12.9805 16.9683 12.8685L17.0953 12.7416V12.271V11.8005H17.5658H18.0364L18.1633 11.6735C18.2753 11.5615 18.2903 11.5242 18.2903 11.3524C18.2903 11.1806 18.2753 11.1433 18.1633 11.0313L18.0364 10.9043H17.5658H17.0953V10.4338V9.96325L16.9683 9.83629C16.8563 9.72426 16.819 9.70932 16.6472 9.70932C16.4754 9.70932 16.4381 9.72426 16.3261 9.83629Z" fill="white"/>
<path d="M13.3386 13.4212L13.2117 13.5482V14.0187V14.4892H12.7411H12.2706L12.1437 14.6162C12.0316 14.7282 12.0167 14.7655 12.0167 14.9373C12.0167 15.1091 12.0316 15.1464 12.1437 15.2584L12.2706 15.3854H12.7411H13.2117V15.8559V16.3265L13.3386 16.4534C13.4507 16.5654 13.488 16.5804 13.6598 16.5804C13.8316 16.5804 13.8689 16.5654 13.9809 16.4534L14.1079 16.3265V15.8559V15.3854H14.5784H15.0489L15.1759 15.2584C15.2879 15.1464 15.3029 15.1091 15.3029 14.9373C15.3029 14.7655 15.2879 14.7282 15.1759 14.6162L15.0489 14.4892H14.5784H14.1079V14.0187V13.5482L13.9809 13.4212C13.8689 13.3092 13.8316 13.2942 13.6598 13.2942C13.488 13.2942 13.4507 13.3092 13.3386 13.4212Z" fill="white"/>
</svg>
